<svg width="121" height="146" viewBox="0 0 121 146" fill="none"
  xmlns="http://www.w3.org/2000/svg">
  <path d="M60.5 136.453C93.9132 136.453 121 109.367 121 75.9534C121 42.5401 93.9132 15.4534 60.5 15.4534C27.0868 15.4534 0 42.5401 0 75.9534C0 109.367 27.0868 136.453 60.5 136.453Z" fill="#2C3489" fill-opacity="0.2"></path>
  <path d="M95.1869 50.1401H25.8136C23.5861 50.1401 21.7803 51.9459 21.7803 54.1735V138.873C21.7803 141.101 23.5861 142.907 25.8136 142.907H95.1869C97.4145 142.907 99.2203 141.101 99.2203 138.873V54.1735C99.2203 51.9459 97.4145 50.1401 95.1869 50.1401Z" fill="#1a1919" fill-opacity="0.7"></path>
  <path d="M52.4334 62.24H31.46C30.1235 62.24 29.04 63.3235 29.04 64.66C29.04 65.9965 30.1235 67.08 31.46 67.08H52.4334C53.7699 67.08 54.8534 65.9965 54.8534 64.66C54.8534 63.3235 53.7699 62.24 52.4334 62.24Z" fill="#F2F3FF"></path>
  <path d="M66.9534 72.7266H31.46C30.1235 72.7266 29.04 73.81 29.04 75.1466C29.04 76.4831 30.1235 77.5666 31.46 77.5666H66.9534C68.2899 77.5666 69.3734 76.4831 69.3734 75.1466C69.3734 73.81 68.2899 72.7266 66.9534 72.7266Z" fill="#2C3489" fill-opacity="0.3"></path>
  <path d="M52.4334 84.02H31.46C30.1235 84.02 29.04 85.1035 29.04 86.44C29.04 87.7765 30.1235 88.86 31.46 88.86H52.4334C53.7699 88.86 54.8534 87.7765 54.8534 86.44C54.8534 85.1035 53.7699 84.02 52.4334 84.02Z" fill="#F2F3FF"></path>
  <path d="M66.9534 94.5066H31.46C30.1235 94.5066 29.04 95.5901 29.04 96.9266C29.04 98.2631 30.1235 99.3466 31.46 99.3466H66.9534C68.2899 99.3466 69.3734 98.2631 69.3734 96.9266C69.3734 95.5901 68.2899 94.5066 66.9534 94.5066Z" fill="#2C3489" fill-opacity="0.3"></path>
  <path d="M52.4334 105.8H31.46C30.1235 105.8 29.04 106.884 29.04 108.22C29.04 109.557 30.1235 110.64 31.46 110.64H52.4334C53.7699 110.64 54.8534 109.557 54.8534 108.22C54.8534 106.884 53.7699 105.8 52.4334 105.8Z" fill="#F2F3FF"></path>
  <path d="M66.9534 116.287H31.46C30.1235 116.287 29.04 117.37 29.04 118.707C29.04 120.043 30.1235 121.127 31.46 121.127H66.9534C68.2899 121.127 69.3734 120.043 69.3734 118.707C69.3734 117.37 68.2899 116.287 66.9534 116.287Z" fill="#2C3489" fill-opacity="0.3"></path>
  <path d="M95.1869 9H25.8136C23.5861 9 21.7803 10.8058 21.7803 13.0333V37.2333C21.7803 39.4609 23.5861 41.2667 25.8136 41.2667H95.1869C97.4145 41.2667 99.2203 39.4609 99.2203 37.2333V13.0333C99.2203 10.8058 97.4145 9 95.1869 9Z" fill="#CC9933"></path>
  <path d="M52.4334 17.8733H31.46C30.1235 17.8733 29.04 18.9568 29.04 20.2933C29.04 21.6298 30.1235 22.7133 31.46 22.7133H52.4334C53.7699 22.7133 54.8534 21.6298 54.8534 20.2933C54.8534 18.9568 53.7699 17.8733 52.4334 17.8733Z" fill="#F2F3FF"></path>
  <path d="M66.9534 28.3599H31.46C30.1235 28.3599 29.04 29.4433 29.04 30.7799C29.04 32.1164 30.1235 33.1999 31.46 33.1999H66.9534C68.2899 33.1999 69.3734 32.1164 69.3734 30.7799C69.3734 29.4433 68.2899 28.3599 66.9534 28.3599Z" fill="#f6f6f6" fill-opacity="0.6"></path>
</svg>
